<?xml version="1.0" encoding="utf-8"?>
<!-- Generator: Adobe Illustrator 22.1.0, SVG Export Plug-In . SVG Version: 6.00 Build 0)  -->
<svg version="1.1" id="Layer_1" xmlns="http://www.w3.org/2000/svg" xmlns:xlink="http://www.w3.org/1999/xlink" x="0px" y="0px"
	 viewBox="0 0 100 22" style="enable-background:new 0 0 100 22;" xml:space="preserve">
<style type="text/css">
	.st0{fill:#FFFFFF;}
</style>
<title>Purplebricks_logo-Hrz-RGB-Plum</title>
<path class="st0" d="M7.5,14.9c-0.2,0-0.3-0.1-0.3-0.3V7.4c0-0.1,0.1-0.3,0.2-0.3c0,0,0.1,0,0.1,0h2.1c2,0,2.9,0.7,2.9,2.8
	s-0.9,2.8-2.9,2.8H8.9v1.9c0,0.2-0.1,0.3-0.3,0.3L7.5,14.9z M9.6,11.1c0.9,0,1.1-0.3,1.1-1.3s-0.3-1.3-1.1-1.3H8.9v2.5H9.6z
	 M14.8,12.3V7.4c0-0.1,0.1-0.3,0.2-0.3c0,0,0.1,0,0.1,0h1.2c0.1,0,0.3,0.1,0.3,0.2c0,0,0,0.1,0,0.1v4.7c0,0.9,0.3,1.3,1,1.3
	s0.9-0.4,0.9-1.2V7.4c0-0.1,0.1-0.3,0.2-0.3c0,0,0.1,0,0.1,0H20c0.1,0,0.3,0.1,0.3,0.2c0,0,0,0.1,0,0.1v4.9c0,1.8-0.9,2.7-2.7,2.7
	S14.8,14.2,14.8,12.3z M25.2,7.1c2,0,2.9,0.7,2.9,2.7c0.1,1-0.5,2-1.4,2.4l1.4,2.3c0.1,0.2,0,0.4-0.2,0.4h-1.2
	c-0.2,0-0.4-0.1-0.4-0.2L25,12.4h-0.6v2.2c0,0.2-0.1,0.3-0.3,0.3H23c-0.2,0-0.3-0.1-0.3-0.3V7.4c0-0.1,0.1-0.3,0.2-0.3
	c0,0,0.1,0,0.1,0H25.2z M25.2,10.9c0.9,0,1.1-0.3,1.1-1.1s-0.3-1.1-1.1-1.1h-0.7v2.3L25.2,10.9z M30.7,14.9c-0.2,0-0.3-0.1-0.3-0.3
	V7.4c0-0.1,0.1-0.3,0.2-0.3c0,0,0.1,0,0.1,0h2.1c2,0,2.9,0.7,2.9,2.8s-0.9,2.8-2.9,2.8h-0.7v1.9c0,0.2-0.1,0.3-0.3,0.3H30.7z
	 M32.8,11.1c0.8,0,1.1-0.3,1.1-1.3s-0.3-1.3-1.1-1.3h-0.7v2.5L32.8,11.1z M39.8,13.3H42c0.1,0,0.3,0.1,0.3,0.2c0,0,0,0.1,0,0.1v1
	c0,0.2-0.1,0.3-0.3,0.3h-3.6c-0.2,0-0.3-0.1-0.3-0.3V7.4c0-0.1,0.1-0.3,0.2-0.3c0,0,0.1,0,0.1,0h1.2c0.1,0,0.3,0.1,0.3,0.2
	c0,0,0,0.1,0,0.1L39.8,13.3z M46.3,11.6v1.7h2.4c0.1,0,0.3,0.1,0.3,0.2c0,0,0,0.1,0,0.1v0.9c0,0.2-0.1,0.3-0.3,0.3h-3.9
	c-0.2,0-0.3-0.1-0.3-0.3V7.4c0-0.1,0.1-0.3,0.2-0.3c0,0,0.1,0,0.1,0h3.8C48.9,7,49,7.1,49,7.3c0,0,0,0.1,0,0.1v0.9
	c0,0.1-0.1,0.3-0.2,0.3c0,0-0.1,0-0.1,0h-2.4v1.5h2.3c0.2,0,0.3,0.1,0.3,0.3v0.9c0,0.1-0.1,0.3-0.2,0.3c0,0,0,0-0.1,0L46.3,11.6z
	 M54.2,14.9c-0.2,0-0.3-0.1-0.3-0.3V7.4c0-0.1,0.1-0.3,0.2-0.3c0,0,0.1,0,0.1,0h2.4c1.7,0,2.7,0.5,2.7,2c0.1,0.7-0.3,1.4-1,1.6
	c0.8,0.3,1.3,1.1,1.2,1.9c0,1.6-1,2.3-2.7,2.3L54.2,14.9z M56.6,10.2c0.7,0,1-0.2,1-0.9s-0.3-0.8-1-0.8h-0.9v1.7L56.6,10.2z
	 M56.6,13.4c0.8,0,1.1-0.2,1.1-0.9s-0.3-0.9-1.1-0.9h-1v1.9L56.6,13.4z M64.3,7.1c2,0,2.9,0.7,2.9,2.7c0.1,1-0.4,2-1.4,2.4l1.3,2.3
	c0.1,0.2,0,0.4-0.2,0.4h-1.2c-0.2,0-0.4-0.1-0.4-0.2l-1.2-2.2h-0.6v2.2c0,0.2-0.1,0.3-0.3,0.3h-1.2c-0.2,0-0.3-0.1-0.3-0.3V7.4
	c0-0.1,0.1-0.3,0.2-0.3c0,0,0.1,0,0.1,0L64.3,7.1z M64.3,10.9c0.9,0,1.1-0.3,1.1-1.1s-0.3-1.1-1.2-1.1h-0.7v2.3L64.3,10.9z
	 M69.5,7.4c0-0.2,0.1-0.3,0.3-0.3H71c0.1,0,0.3,0.1,0.3,0.2c0,0,0,0.1,0,0.1v7.2c0,0.2-0.1,0.3-0.3,0.3h-1.2c-0.1,0-0.3-0.1-0.3-0.2
	c0,0,0,0,0-0.1L69.5,7.4z M78.2,13.2c0.2-0.1,0.3,0,0.4,0.2l0.2,0.8c0.1,0.2,0,0.3-0.2,0.4C78,14.9,77.5,15,76.9,15
	c-2.1,0-3.2-1-3.2-4s1.1-4,3.2-4c0.6,0,1.1,0.1,1.6,0.3c0.2,0.1,0.3,0.2,0.2,0.4l-0.2,0.8c0,0.2-0.2,0.3-0.4,0.2
	c-0.3-0.1-0.6-0.1-0.9-0.1c-1.2,0-1.6,0.6-1.6,2.4s0.5,2.4,1.7,2.4C77.5,13.4,77.8,13.3,78.2,13.2L78.2,13.2z M84.5,7.3
	c0.1-0.2,0.2-0.3,0.4-0.3h1.3c0.2,0,0.3,0.2,0.2,0.4l-2.2,3.2l2.3,3.8c0.1,0.2,0.1,0.4-0.2,0.4H85c-0.2,0-0.3-0.1-0.4-0.3l-1.8-3.1
	v3c0,0.2-0.1,0.3-0.3,0.3h-1.2c-0.1,0-0.3-0.1-0.3-0.2c0,0,0,0,0-0.1V7.4c0-0.2,0.1-0.3,0.3-0.3h1.2c0.1,0,0.3,0.1,0.3,0.2
	c0,0,0,0.1,0,0.1v2.5L84.5,7.3z M90.6,15c-0.7,0-1.4-0.1-2-0.3c-0.2-0.1-0.3-0.2-0.3-0.4l0.2-0.9c0-0.2,0.2-0.3,0.4-0.2
	c0.4,0.2,0.9,0.2,1.3,0.2c0.7,0,1.2-0.2,1.2-0.7S91,12,90.3,11.6c-1.1-0.3-1.8-1.3-1.8-2.5C88.4,7.6,89.2,7,91,7
	c0.6,0,1.1,0.1,1.7,0.3c0.2,0.1,0.3,0.2,0.2,0.4l-0.2,0.8c0,0.2-0.2,0.3-0.4,0.2c-0.4-0.1-0.8-0.2-1.2-0.2c-0.7,0-1,0.2-1,0.6
	s0.5,0.8,1.1,1.1c1.1,0.6,1.9,1.1,1.9,2.5C93.2,14.3,92.1,15,90.6,15z M38.1,0H0.3C0.1,0,0,0.1,0,0.3c0,0,0,0,0,0v21.4
	C0,21.9,0.1,22,0.3,22c0,0,0,0,0,0h16c0.1,0,0.2,0,0.2-0.1l1.4-1.4c0.1-0.1,0.1-0.2,0-0.2c0,0-0.1-0.1-0.1,0h-16V1.8h34.7
	c0.1,0,0.2,0,0.2-0.1l1.4-1.4c0.1-0.1,0.1-0.2,0-0.2C38.2,0,38.1,0,38.1,0z M61.9,22h37.8c0.2,0,0.3-0.1,0.3-0.3c0,0,0,0,0,0V0.3
	c0-0.2-0.1-0.3-0.3-0.3c0,0,0,0,0,0h-16c-0.1,0-0.2,0-0.2,0.1l-1.4,1.4c-0.1,0.1-0.1,0.2,0,0.2c0,0,0.1,0.1,0.1,0h16v18.4H63.5
	c-0.1,0-0.2,0-0.2,0.1l-1.4,1.4c-0.1,0-0.1,0.1,0,0.2C61.8,22,61.9,22,61.9,22z"/>
</svg>
